HIERARCHY
ROOT Hips
{
	OFFSET 0.000000 0.000000 0.000000 
	CHANNELS 6 Xposition Yposition Zposition Zrotation Yrotation Xrotation
	JOINT LeftUpLeg
	{
		OFFSET 1.363060 -1.794630 0.839290 
		CHANNELS 3 Zrotation Yrotation Xrotation
		JOINT LeftLeg
		{
			OFFSET 2.448110 -6.726130 0.000000 
			CHANNELS 3 Zrotation Yrotation Xrotation
			JOINT LeftFoot
			{
				OFFSET 2.562200 -7.039590 0.000000 
				CHANNELS 3 Zrotation Yrotation Xrotation
				JOINT LeftToeBase
				{
					OFFSET 0.157640 -0.433110 2.322550 
					CHANNELS 3 Zrotation Yrotation Xrotation
					End Site
					{
						OFFSET 0.000000 0.000000 0.000000 
					}
				}
			}
		}
	}
	JOINT RightUpLeg
	{
		OFFSET -1.305520 -1.794630 0.839290 
		CHANNELS 3 Zrotation Yrotation Xrotation
		JOINT RightLeg
		{
			OFFSET -2.542530 -6.985550 0.000000 
			CHANNELS 3 Zrotation Yrotation Xrotation
			JOINT RightFoot
			{
				OFFSET -2.568260 -7.056230 0.000000 
				CHANNELS 3 Zrotation Yrotation Xrotation
				JOINT RightToeBase
				{
					OFFSET -0.164730 -0.452590 2.363150 
					CHANNELS 3 Zrotation Yrotation Xrotation
					End Site
					{
						OFFSET 0.000000 0.000000 0.000000 
					}
				}
			}
		}
	}
	JOINT Spine
	{
		OFFSET 0.028270 2.035590 -0.193380 
		CHANNELS 3 Zrotation Yrotation Xrotation
		JOINT Spine1
		{
			OFFSET 0.056720 2.048850 -0.042750 
			CHANNELS 3 Zrotation Yrotation Xrotation
			JOINT Neck1
			{
				OFFSET -0.054170 1.746240 0.172020 
				CHANNELS 3 Zrotation Yrotation Xrotation
				JOINT Head
				{
					OFFSET 0.104070 1.761360 -0.123970 
					CHANNELS 3 Zrotation Yrotation Xrotation
					End Site
					{
						OFFSET 0.000000 0.000000 0.000000 
					}
				}
			}
			JOINT LeftArm
			{
				OFFSET 3.362410 1.200890 -0.311210 
				CHANNELS 3 Zrotation Yrotation Xrotation
				JOINT LeftForeArm
				{
					OFFSET 4.983000 -0.000000 -0.000000 
					CHANNELS 3 Zrotation Yrotation Xrotation
					JOINT LeftHand
					{
						OFFSET 3.483560 -0.000000 -0.000000 
						CHANNELS 3 Zrotation Yrotation Xrotation
						JOINT LeftHandIndex1
						{
							OFFSET 0.715260 -0.000000 -0.000000 
							CHANNELS 3 Zrotation Yrotation Xrotation
							End Site
							{
								OFFSET 0.000000 0.000000 0.000000 
							}
						}
					}
				}
			}
			JOINT RightArm
			{
				OFFSET -3.136600 1.374050 -0.404650 
				CHANNELS 3 Zrotation Yrotation Xrotation
				JOINT RightForeArm
				{
					OFFSET -5.241900 -0.000000 -0.000000 
					CHANNELS 3 Zrotation Yrotation Xrotation
					JOINT RightHand
					{
						OFFSET -3.444170 -0.000000 -0.000000 
						CHANNELS 3 Zrotation Yrotation Xrotation
						JOINT RightHandIndex1
						{
							OFFSET -0.622530 -0.000000 -0.000000 
							CHANNELS 3 Zrotation Yrotation Xrotation
							End Site
							{
								OFFSET 0.000000 0.000000 0.000000 
							}
						}
					}
				}
			}
		}
	}
}
MOTION
Frames: 7
Frame Time: 0.041667
-0.374032 18.418183 5.062671 0.568545 0.965121 16.795937 -12.338649 -11.240811 -31.856926 1.947440 10.178492 29.472659 -0.377620 4.219344 -7.326257 8.911200 -16.750200 -55.782400 15.432836 9.879513 -15.546659 -0.029357 -2.032294 9.623784 0.483403 -7.607866 -15.482415 -0.302900 3.538700 -9.782400 -19.470415 2.409149 22.942076 0.539944 0.928603 -26.504362 -0.585912 5.779943 -6.705608 -0.189000 2.628600 2.102100 -88.739664 0.719786 47.373150 130.111730 -49.931927 -92.775722 -0.087165 0.567460 20.207178 -7.125000 0.000000 0.000000 92.470651 -3.064108 35.943277 -136.761265 42.280825 -99.475688 0.818436 1.314591 10.433713 7.125000 0.000000 0.000000 
-0.373738 18.418085 5.046490 0.411904 1.144431 16.720351 -12.185646 -11.387810 -31.953000 1.974294 10.197140 29.588567 -0.394135 4.288643 -7.353090 8.910900 -16.750000 -55.781400 15.555760 9.785919 -15.459521 -0.002611 -1.920125 9.314393 0.518959 -7.747199 -15.383099 -0.309000 3.573800 -9.880500 -18.570071 2.466548 23.848279 0.441411 0.951318 -26.645541 -0.252724 5.635709 -3.156221 -0.093000 2.571400 3.079600 -89.356855 0.114981 47.967899 130.283189 -49.874947 -92.883145 -0.078290 0.557034 19.015422 -7.125000 0.000000 0.000000 92.665424 -3.124024 35.861508 -136.971268 42.167545 -99.623053 0.765222 1.309364 10.291066 7.125000 0.000000 0.000000 
-0.362460 18.414358 5.016089 0.363386 1.381378 16.686779 -12.102055 -11.934004 -32.036692 1.993557 10.220001 29.703075 -0.457623 4.602823 -7.511542 8.894000 -16.739000 -55.722900 15.511801 9.567874 -15.437858 0.033400 -1.764825 8.888503 0.582731 -8.013545 -15.241392 -0.331300 3.699000 -10.231500 -17.851091 2.474555 24.610110 0.225378 0.909361 -26.800594 0.538679 5.212852 1.180252 0.114200 2.411600 3.791600 -89.797025 -0.492378 48.661133 130.411011 -49.826168 -92.957274 -0.069005 0.544952 17.683951 -7.125000 0.000000 0.000000 92.787734 -3.171817 35.862391 -137.072102 42.114873 -99.681890 0.730768 1.319216 10.136630 7.125000 0.000000 0.000000 
-0.356380 18.413182 4.999711 0.189463 1.354480 16.672872 -11.963457 -12.056517 -32.144450 2.011867 10.230597 29.790378 -0.494742 4.780923 -7.619985 8.891100 -16.737100 -55.712600 15.558134 9.670464 -15.349238 0.073468 -1.599711 8.424129 0.632145 -8.246575 -15.183963 -0.320500 3.639200 -10.063700 -16.938243 2.626034 25.577387 0.042808 0.970498 -26.769718 1.240703 4.586319 4.756637 0.288000 2.172900 4.642900 -90.083133 -1.037320 49.417317 130.534482 -49.769740 -93.035539 -0.061402 0.535830 16.376461 -7.125000 0.000000 0.000000 92.777131 -3.177871 35.947113 -137.086634 42.112005 -99.670814 0.708527 1.327589 10.098300 7.125000 0.000000 0.000000 
-0.359518 18.416222 4.990493 0.065480 1.391457 16.575707 -11.849993 -12.144958 -32.101317 2.025078 10.220185 29.831050 -0.515745 4.872701 -7.677261 8.914300 -16.752300 -55.793300 15.634335 9.678249 -15.137768 0.109504 -1.442937 7.992639 0.668813 -8.437400 -15.183466 -0.302900 3.538500 -9.781900 -15.994701 2.740653 26.464170 -0.107875 1.048199 -26.776366 2.286466 3.721634 8.011325 0.546600 1.851700 5.392100 -90.197963 -1.422946 50.295442 130.600450 -49.734538 -93.066564 -0.054362 0.529318 15.423715 -7.125000 0.000000 0.000000 92.708710 -3.298567 36.076929 -137.062569 42.130079 -99.615884 0.668575 1.329299 10.243060 7.125000 0.000000 0.000000 
-0.363146 18.419066 4.985492 -0.006034 1.377960 16.509529 -11.785004 -12.182677 -32.039378 2.027130 10.198417 29.818666 -0.523281 4.905035 -7.734433 8.907100 -16.747600 -55.768300 15.672210 9.693366 -14.906656 0.146942 -1.277493 7.542936 0.726615 -8.729043 -15.162918 -0.328500 3.683900 -10.189000 -15.337693 2.812472 27.096295 -0.224789 1.108392 -26.761811 3.694504 2.728806 10.606934 0.887600 1.498000 5.951500 -90.092295 -1.628781 51.079864 130.625477 -49.713273 -93.069883 -0.045653 0.523969 14.857773 -7.125000 0.000000 0.000000 92.655714 -3.484054 36.416762 -137.014467 42.158136 -99.513846 0.604438 1.339639 10.535230 7.125000 0.000000 0.000000 
-0.365794 18.419752 4.984021 -0.100430 1.329775 16.409457 -11.742192 -12.097960 -31.944340 2.025679 10.166668 29.779149 -0.518208 4.872289 -7.758835 8.884700 -16.733000 -55.690600 15.720893 9.763990 -14.695013 0.171943 -1.166127 7.241719 0.757908 -8.909862 -15.203906 -0.351500 3.809000 -10.540100 -14.709909 2.832686 27.686732 -0.301685 1.154845 -26.748176 4.897921 1.698628 12.515874 1.155200 1.118600 6.332000 -89.827593 -1.695336 51.691308 130.736576 -49.653950 -93.158130 -0.036119 0.519693 14.320908 -7.125000 0.000000 0.000000 92.591559 -3.581008 36.912070 -136.893461 42.220303 -99.386583 0.602435 1.323845 10.864595 7.125000 0.000000 0.000000 
